<svg width="219" height="44" xmlns="http://www.w3.org/2000/svg"><g transform="translate(1 1)" fill="none"><rect stroke="#000" stroke-width=".1" fill="#292E70" width="217" height="42" rx="4.52"/><path d="M149.213 25.295c-.647.231-1.269.41-1.866.527a8.687 8.687 0 0 1-1.696.178c-1.412 0-2.54-.391-3.384-1.176-.845-.783-1.267-1.822-1.267-3.114 0-.852.134-1.654.4-2.408a6.715 6.715 0 0 1 1.184-2.064 6.235 6.235 0 0 1 2.22-1.689 6.653 6.653 0 0 1 2.798-.591c.543 0 1.09.066 1.64.193a8.77 8.77 0 0 1 1.673.598l-.436 2.201a4.995 4.995 0 0 0-1.358-.762 4.3 4.3 0 0 0-1.464-.243c-1.084 0-1.992.424-2.722 1.272-.734.844-1.1 1.902-1.1 3.17 0 .819.226 1.461.675 1.924.453.468 1.074.7 1.869.7.47 0 .976-.088 1.508-.26.532-.172 1.128-.446 1.791-.818l-.465 2.362zm10.497-4.247l-.906 4.863h-2.443l.77-4.165c.056-.27.096-.499.125-.686a3.07 3.07 0 0 0 .047-.446c0-.305-.08-.541-.243-.707-.162-.167-.389-.25-.684-.25-.504 0-.936.206-1.297.618-.36.41-.61.98-.752 1.707l-.735 3.929h-2.443l2.056-11.095h2.45l-.797 4.28c.45-.461.9-.804 1.353-1.028a3.172 3.172 0 0 1 1.423-.335c.702 0 1.246.194 1.627.577.382.386.57.927.57 1.627 0 .152-.01.32-.03.506-.02.184-.05.386-.09.605m7.386-.106a1.876 1.876 0 0 0 .04-.377c0-.38-.109-.68-.327-.903-.218-.222-.514-.334-.884-.334-.478 0-.883.137-1.216.41-.332.271-.59.672-.766 1.204h3.153zm2.299 1.163l-.083.407h-5.702c0 .029-.003.07-.008.124a1.673 1.673 0 0 0-.006.126c0 .515.15.9.447 1.158.296.256.741.384 1.336.384.512 0 1.053-.083 1.622-.242a9.94 9.94 0 0 0 1.794-.718l-.375 1.976c-.592.229-1.184.395-1.77.509a9.58 9.58 0 0 1-1.793.167c-1.19 0-2.107-.287-2.754-.86-.647-.575-.97-1.385-.97-2.431a5.193 5.193 0 0 1 1.212-3.335 4.599 4.599 0 0 1 1.676-1.291c.651-.295 1.375-.442 2.17-.442 1.028 0 1.847.286 2.45.858.607.574.91 1.347.91 2.32 0 .187-.012.388-.037.599a7.271 7.271 0 0 1-.12.691zm8.269-4.037l-.38 2.011a4.308 4.308 0 0 0-.945-.502 2.571 2.571 0 0 0-.913-.174c-.777 0-1.41.27-1.902.808-.492.54-.738 1.23-.738 2.07 0 .538.152.955.459 1.252.305.296.737.443 1.297.443.374 0 .738-.056 1.097-.17a3.805 3.805 0 0 0 1.026-.511l-.367 2.018a7.089 7.089 0 0 1-2.396.427c-1.17 0-2.072-.271-2.704-.816-.632-.546-.947-1.317-.947-2.317 0-.63.115-1.24.348-1.833a5.11 5.11 0 0 1 1.001-1.599 4.678 4.678 0 0 1 1.663-1.159c.627-.25 1.35-.376 2.163-.376a6.052 6.052 0 0 1 2.238.428m2.488-3.408h2.493l-1.137 6.011 3.35-2.901h2.926l-4.514 3.693 3.278 4.293h-2.833l-2.517-3.444-.652 3.444h-2.489z" fill="#FFF"/><path d="M191.727 19.531c-.63 0-1.147.285-1.558.856-.408.574-.611 1.302-.611 2.185 0 .482.11.848.33 1.1.218.25.54.376.962.376.63 0 1.151-.285 1.56-.859.406-.574.611-1.305.611-2.195 0-.475-.109-.84-.33-1.09-.22-.248-.54-.373-.964-.373m.2-1.742c1.132 0 2.024.288 2.672.862.65.579.973 1.363.973 2.357a4.767 4.767 0 0 1-1.198 3.165 4.522 4.522 0 0 1-1.639 1.21c-.63.272-1.334.408-2.11.408-1.12 0-2.002-.287-2.65-.865-.646-.575-.97-1.36-.97-2.354 0-.57.104-1.129.314-1.677a4.956 4.956 0 0 1 .898-1.5 4.466 4.466 0 0 1 1.622-1.2 5.232 5.232 0 0 1 2.087-.406m4.446 4.804l.893-4.552h2.441l-.77 3.879c-.055.254-.093.468-.122.646-.025.179-.04.317-.04.42 0 .278.08.497.238.653.158.154.386.231.68.231.504 0 .938-.192 1.3-.572.363-.381.614-.912.749-1.59l.734-3.667h2.444l-1.476 7.453h-2.458l.224-1.09c-.417.43-.855.75-1.311.965a3.405 3.405 0 0 1-1.45.318c-.695 0-1.232-.18-1.614-.538-.381-.36-.571-.868-.571-1.526a5.196 5.196 0 0 1 .109-1.03m12.62-6.886l-.38 2.238h2.284l-.32 1.801h-2.284l-.573 3.338a1.397 1.397 0 0 0-.042.335c0 .218.062.372.188.467.127.092.342.14.638.14h1.157l-.317 1.802h-1.88c-.673 0-1.186-.16-1.54-.48-.354-.317-.53-.777-.53-1.378a5.55 5.55 0 0 1 .075-.88l1.28-7.383h2.244zm-100.17-5.754l-4.021 18.477h-4.859l4.018-18.477h4.862zm20.444 11.93l2.559-6.937 1.471 6.938h-4.03zm5.423 6.547h4.496L135.26 9.953h-4.146c-.935 0-1.72.532-2.068 1.357l-7.294 17.12h5.102l1.016-2.761h6.231l.588 2.761zm-12.683-6.033c.02-4.874-6.857-5.144-6.81-7.326.013-.66.657-1.365 2.061-1.546.696-.09 2.615-.16 4.793.826l.854-3.914c-1.172-.42-2.677-.824-4.546-.824-4.805 0-8.186 2.514-8.216 6.109-.029 2.664 2.417 4.144 4.258 5.03 1.894.906 2.526 1.485 2.52 2.297-.013 1.238-1.51 1.786-2.908 1.806-2.442.038-3.862-.649-4.993-1.167l-.877 4.05c1.134.512 3.228.957 5.403.982 5.106 0 8.444-2.478 8.461-6.323zM101.877 9.953L94 28.43h-5.135l-3.873-14.747c-.235-.909-.44-1.243-1.155-1.622-1.17-.624-3.1-1.21-4.793-1.574l.113-.534h8.27c1.052 0 2.002.69 2.243 1.884l2.044 10.69 5.058-12.574h5.105z" fill="#FFF"/></g></svg>