<?xml version="1.0" encoding="utf-8"?>
<!-- Generator: Adobe Illustrator 16.0.0, SVG Export Plug-In . SVG Version: 6.00 Build 0)  -->
<!DOCTYPE svg PUBLIC "-//W3C//DTD SVG 1.1//EN" "http://www.w3.org/Graphics/SVG/1.1/DTD/svg11.dtd">
<svg version="1.1" id="Layer_1" xmlns="http://www.w3.org/2000/svg" xmlns:xlink="http://www.w3.org/1999/xlink" x="0px" y="0px"
	 width="24px" height="24px" viewBox="0 0 24 24" enable-background="new 0 0 24 24" xml:space="preserve">
<path fill="#587496" d="M16.215,12.003l5.27-5.256c0.585-0.581,0.585-1.521,0-2.102l-2.106-2.102c-0.582-0.581-1.526-0.581-2.107,0
	l-5.271,5.255L6.728,2.542c-0.583-0.581-1.525-0.581-2.107,0L2.513,4.644c-0.583,0.581-0.583,1.522,0,2.102l5.271,5.256
	l-5.271,5.256c-0.583,0.581-0.583,1.522,0,2.102l2.108,2.1c0.583,0.581,1.525,0.581,2.107,0l5.269-5.256l5.271,5.256
	c0.583,0.581,1.527,0.581,2.108,0l2.106-2.1c0.584-0.581,0.584-1.522,0-2.102L16.215,12.003z"/>
</svg>
