<?xml version="1.0" encoding="utf-8"?><!DOCTYPE svg PUBLIC "-//W3C//DTD SVG 1.1//EN" "http://www.w3.org/Graphics/SVG/1.1/DTD/svg11.dtd"><svg version="1.1" xmlns="http://www.w3.org/2000/svg" xmlns:xlink="http://www.w3.org/1999/xlink" x="0px" y="0px" width="37px" height="26px" viewBox="0 0 37 26" enable-background="new 0 0 37 26" xml:space="preserve"><g><path fill="#587496" d="M10,18.5v1c0,0.276,0.224,0.5,0.5,0.5h14c0.276,0,0.5-0.224,0.5-0.5v-1c0-0.276-0.224-0.5-0.5-0.5h-14C10.224,18,10,18.224,10,18.5z M18,10.5v1c0,0.276,0.224,0.5,0.5,0.5h1c0.276,0,0.5-0.224,0.5-0.5v-1c0-0.276-0.224-0.5-0.5-0.5h-1C18.224,10,18,10.224,18,10.5z M22,10.5v1c0,0.276,0.224,0.5,0.5,0.5h1c0.276,0,0.5-0.224,0.5-0.5v-1c0-0.276-0.224-0.5-0.5-0.5h-1C22.224,10,22,10.224,22,10.5z M21.5,8h1C22.776,8,23,7.776,23,7.5v-1C23,6.224,22.776,6,22.5,6h-1C21.224,6,21,6.224,21,6.5v1C21,7.776,21.224,8,21.5,8z M21.5,16h1c0.276,0,0.5-0.224,0.5-0.5v-1c0-0.276-0.224-0.5-0.5-0.5h-1c-0.276,0-0.5,0.224-0.5,0.5v1C21,15.776,21.224,16,21.5,16z M29.5,16h1c0.276,0,0.5-0.224,0.5-0.5v-1c0-0.276-0.224-0.5-0.5-0.5h-1c-0.276,0-0.5,0.224-0.5,0.5v1C29,15.776,29.224,16,29.5,16z M29.5,8h1C30.776,8,31,7.776,31,7.5v-1C31,6.224,30.776,6,30.5,6h-1C29.224,6,29,6.224,29,6.5v1C29,7.776,29.224,8,29.5,8z M30.5,18h-3c-0.276,0-0.5,0.224-0.5,0.5v1c0,0.276,0.224,0.5,0.5,0.5h3c0.276,0,0.5-0.224,0.5-0.5v-1C31,18.224,30.776,18,30.5,18z M25.5,16h1c0.276,0,0.5-0.224,0.5-0.5v-1c0-0.276-0.224-0.5-0.5-0.5h-1c-0.276,0-0.5,0.224-0.5,0.5v1C25,15.776,25.224,16,25.5,16z M17.5,8h1C18.776,8,19,7.776,19,7.5v-1C19,6.224,18.776,6,18.5,6h-1C17.224,6,17,6.224,17,6.5v1C17,7.776,17.224,8,17.5,8z M25.5,8h1C26.776,8,27,7.776,27,7.5v-1C27,6.224,26.776,6,26.5,6h-1C25.224,6,25,6.224,25,6.5v1C25,7.776,25.224,8,25.5,8z M26,10.5v1c0,0.276,0.224,0.5,0.5,0.5h1c0.276,0,0.5-0.224,0.5-0.5v-1c0-0.276-0.224-0.5-0.5-0.5h-1C26.224,10,26,10.224,26,10.5z M13.5,16h1c0.276,0,0.5-0.224,0.5-0.5v-1c0-0.276-0.224-0.5-0.5-0.5h-1c-0.276,0-0.5,0.224-0.5,0.5v1C13,15.776,13.224,16,13.5,16z M6.5,12h1C7.776,12,8,11.776,8,11.5v-1C8,10.224,7.776,10,7.5,10h-1C6.224,10,6,10.224,6,10.5v1C6,11.776,6.224,12,6.5,12z M7,14H6v2h1V14z M7,6H6v2h1V6z M6.5,20h1C7.776,20,8,19.776,8,19.5v-1C8,18.224,7.776,18,7.5,18h-1C6.224,18,6,18.224,6,18.5v1C6,19.776,6.224,20,6.5,20z M35,0H2C0.896,0,0,0.896,0,2v22c0,1.104,0.896,2,2,2h33c1.104,0,2-0.896,2-2V2C37,0.896,36.104,0,35,0z M35,24H2V2h33V24z M10,10.5v1c0,0.276,0.224,0.5,0.5,0.5h1c0.276,0,0.5-0.224,0.5-0.5v-1c0-0.276-0.224-0.5-0.5-0.5h-1C10.224,10,10,10.224,10,10.5z M14,10.5v1c0,0.276,0.224,0.5,0.5,0.5h1c0.276,0,0.5-0.224,0.5-0.5v-1c0-0.276-0.224-0.5-0.5-0.5h-1C14.224,10,14,10.224,14,10.5z M13.5,8h1C14.776,8,15,7.776,15,7.5v-1C15,6.224,14.776,6,14.5,6h-1C13.224,6,13,6.224,13,6.5v1C13,7.776,13.224,8,13.5,8z M9.5,16h1c0.276,0,0.5-0.224,0.5-0.5v-1c0-0.276-0.224-0.5-0.5-0.5h-1C9.224,14,9,14.224,9,14.5v1C9,15.776,9.224,16,9.5,16z M17.5,16h1c0.276,0,0.5-0.224,0.5-0.5v-1c0-0.276-0.224-0.5-0.5-0.5h-1c-0.276,0-0.5,0.224-0.5,0.5v1C17,15.776,17.224,16,17.5,16z M9.5,8h1C10.776,8,11,7.776,11,7.5v-1C11,6.224,10.776,6,10.5,6h-1C9.224,6,9,6.224,9,6.5v1C9,7.776,9.224,8,9.5,8z M30,12h1v-2h-1V12z"/></g></svg>