<?xml version="1.0" encoding="UTF-8"?>
<svg width="219px" height="44px" viewBox="0 0 219 44" version="1.1" xmlns="http://www.w3.org/2000/svg" xmlns:xlink="http://www.w3.org/1999/xlink">
    <!-- Generator: Sketch 51.3 (57544) - http://www.bohemiancoding.com/sketch -->
    <title>Visa_Checkout_Button</title>
    <desc>Created with Sketch.</desc>
    <defs></defs>
    <g id="Page-1" stroke="none" stroke-width="1" fill="none" fill-rule="evenodd">
        <g id="Desktop-HD-Copy-17" transform="translate(-236.000000, -413.000000)" fill-rule="nonzero">
            <g id="Visa_Checkout_Button" transform="translate(237.000000, 414.000000)">
                <rect id="rect3572" stroke="#000000" stroke-width="0.1" fill="#292E70" x="0" y="0" width="217" height="42" rx="4.519794"></rect>
                <g id="g3281" transform="translate(146.000000, 20.000000) scale(-1, 1) rotate(-180.000000) translate(-146.000000, -20.000000) translate(141.000000, 14.000000)" fill="#FFFFFF">
                    <path d="M8.21335512,0.705349535 C7.56569091,0.473578795 6.94414945,0.294732083 6.34692917,0.177934229 C5.75151047,0.0593114098 5.18671845,0 4.65075154,0 C3.23922187,0 2.11053861,0.391455305 1.26650332,1.17619088 C0.422468036,1.95910149 2.27373675e-13,2.99841989 2.27373675e-13,4.29049614 C2.27373675e-13,5.14184299 0.134216924,5.94391575 0.399948418,6.69762689 C0.668382266,7.45042556 1.06292598,8.13843791 1.58357955,8.76166396 C2.19791473,9.4934755 2.93745899,10.0564777 3.80401389,10.4506704 C4.66966801,10.8457756 5.60107942,11.0419595 6.60185125,11.0419595 C7.14502444,11.0419595 7.69180077,10.9762608 8.24127945,10.8485131 C8.78985735,10.716203 9.34834388,10.5172817 9.91493747,10.2508366 L9.47895766,8.04992704 C9.03036687,8.3948457 8.5745698,8.650341 8.1205743,8.81185053 C7.66567801,8.97518503 7.17745269,9.05457107 6.65679912,9.05457107 C5.57315509,9.05457107 4.66516409,8.63117885 3.93462768,7.78348194 C3.20138891,6.93852247 2.83567031,5.8809544 2.83567031,4.6135152 C2.83567031,3.79410526 3.0608665,3.15171707 3.51035807,2.68908807 C3.96255201,2.22098418 4.58409347,1.98921344 5.37858559,1.98921344 C5.849696,1.98921344 6.35503624,2.07681183 6.88740001,2.24927116 C7.418863,2.420818 8.01518248,2.69456297 8.67816004,3.06685613 L8.21335512,0.705349535 Z" id="path3283"></path>
                </g>
                <g id="g3285" transform="translate(155.500000, 20.000000) scale(-1, 1) rotate(-180.000000) translate(-155.500000, -20.000000) translate(151.000000, 14.000000)" fill="#FFFFFF">
                    <path d="M8.71006718,4.95186889 L7.80422019,0.0892457679 L5.36104635,0.0892457679 L6.13101629,4.25381922 C6.18676072,4.52391426 6.22682702,4.75294755 6.25557025,4.94000661 C6.28692649,5.12797815 6.30260461,5.2776254 6.30260461,5.38621091 C6.30260461,5.6909803 6.22247199,5.92731346 6.06046474,6.09338541 C5.89845749,6.26036984 5.67112474,6.34249333 5.37585346,6.34249333 C4.87241158,6.34249333 4.43952124,6.1371846 4.07892446,5.72474218 C3.71832768,5.31412473 3.46834875,4.74564768 3.32724566,4.01839855 L2.59211599,0.0892457679 L0.148942149,0.0892457679 L2.204518,11.1841293 L4.6546599,11.1841293 L3.85768875,6.904583 C4.30712822,7.36538703 4.7583097,7.70848072 5.21123319,7.93203911 C5.6658987,8.15650999 6.13972635,8.26692046 6.63445817,8.26692046 C7.33648958,8.26692046 7.87999777,8.07347401 8.26062771,7.69023106 C8.64299966,7.30425065 8.83113711,6.7631481 8.83113711,6.06327346 C8.83113711,5.91088876 8.82155604,5.74207937 8.80152288,5.55684527 C8.78148973,5.37252366 8.75100449,5.17086486 8.71006718,4.95186889" id="path3287"></path>
                </g>
                <g id="g3289" transform="translate(165.500000, 21.700000) scale(-1, 1) rotate(-180.000000) translate(-165.500000, -21.700000) translate(161.000000, 17.000000)" fill="#FFFFFF">
                    <path d="M6.09704702,5.45830876 C6.10924112,5.5201696 6.1196932,5.58294015 6.12579025,5.64843985 C6.1327583,5.71030069 6.13624233,5.77398095 6.13624233,5.83493207 C6.13624233,6.21519425 6.02823749,6.51540123 5.81048581,6.73828217 C5.59186313,6.96025339 5.29572084,7.07214872 4.92554299,7.07214872 C4.44823131,7.07214872 4.04321318,6.93478128 3.71048862,6.66277556 C3.37776405,6.39076984 3.12081707,5.98958415 2.94400271,5.45830876 L6.09704702,5.45830876 Z M8.39563375,4.29477928 L8.31288811,3.88813528 L2.61127814,3.88813528 C2.61127814,3.8590243 2.60779411,3.81717726 2.60343908,3.76350389 C2.59908405,3.70801109 2.59734203,3.66707377 2.59734203,3.63796279 C2.59734203,3.12306233 2.74628418,2.73734185 3.04416848,2.47989162 C3.34031076,2.22426082 3.7853952,2.09599057 4.38029278,2.09599057 C4.89244473,2.09599057 5.4333399,2.17877491 6.00210729,2.33797559 C6.5734877,2.4989957 7.1701273,2.73825156 7.79551012,3.05574319 L7.42097723,1.07983542 C6.82869267,0.851496167 6.23727911,0.68501775 5.65022058,0.571302984 C5.06142004,0.459407654 4.46390943,0.403914849 3.85768875,0.403914849 C2.66789358,0.403914849 1.7507235,0.691385777 1.10443652,1.2645082 C0.457278527,1.83854034 0.133264028,2.64909919 0.133264028,3.69527503 C0.133264028,4.30205702 0.237784834,4.89155437 0.444213426,5.46285735 C0.649771011,6.03325062 0.951139336,6.55542883 1.34570538,7.03030169 C1.81256498,7.59887552 2.3726223,8.02735276 3.0215223,8.32119171 C3.67303533,8.61594038 4.39684191,8.76331472 5.19120004,8.76331472 C6.21985897,8.76331472 7.03860529,8.47675351 7.64221294,7.90454081 C8.24930462,7.33050867 8.55154395,6.55815798 8.55154395,5.5856693 C8.55154395,5.39826737 8.54022087,5.19721966 8.51496167,4.98616506 C8.48883147,4.77511045 8.45137818,4.54495176 8.39563375,4.29477928 Z" id="path3291"></path>
                </g>
                <g id="g3293" transform="translate(174.000000, 21.500000) scale(-1, 1) rotate(-180.000000) translate(-174.000000, -21.500000) translate(170.000000, 17.000000)" fill="#FFFFFF">
                    <path d="M7.66485912,7.93193422 L7.28587441,5.92082069 C6.96395033,6.14212253 6.64883946,6.30964185 6.33969014,6.42337865 C6.02883752,6.54064218 5.72479811,6.59706974 5.42672025,6.59706974 C4.65001453,6.59706974 4.01723783,6.32727546 3.52498354,5.78945027 C3.03272926,5.24809836 2.78745377,4.55862411 2.78745377,3.71926414 C2.78745377,3.18055727 2.93904765,2.76440401 3.24564201,2.46727764 C3.55053307,2.17103295 3.98317179,2.02379228 4.5427065,2.02379228 C4.9165813,2.02379228 5.28108793,2.08021984 5.63963301,2.19483832 C6.00158469,2.31122017 6.34224509,2.47873949 6.66587248,2.70533141 L6.29881089,0.687164436 C5.90534812,0.544332173 5.50677545,0.437648816 5.10820277,0.366232685 C4.71048175,0.295698234 4.30850247,0.260431009 3.90311659,0.260431009 C2.7329481,0.260431009 1.83104968,0.531106964 1.19912463,1.0759856 C0.567199575,1.62174591 0.2520887,2.39321647 0.2520887,3.39304231 C0.2520887,4.02256228 0.367061587,4.63356696 0.600413964,5.22605635 C0.83206304,5.81942742 1.16846519,6.35108084 1.6011039,6.82454334 C2.08654498,7.34385324 2.64011814,7.72914767 3.26437833,7.98395338 C3.89119348,8.23435068 4.61339354,8.36043101 5.42672025,8.36043101 C5.8048533,8.36043101 6.1804314,8.3242821 6.55345454,8.25374765 C6.92562604,8.18497656 7.29524258,8.07652984 7.66485912,7.93193422" id="path3295"></path>
                </g>
                <g id="g3297" transform="translate(183.000000, 20.000000) scale(-1, 1) rotate(-180.000000) translate(-183.000000, -20.000000) translate(178.000000, 14.000000)" fill="#FFFFFF">
                    <polygon id="path3299" points="2.15290756 11.3392515 4.64576105 11.3392515 3.50933923 5.32872446 6.85827941 8.23042113 9.78494263 8.23042113 5.27119226 4.53668902 8.54916152 0.244367917 5.71564763 0.244367917 3.19884146 3.68807962 2.54679615 0.244367917 0.0583783517 0.244367917"></polygon>
                </g>
                <g id="g3301" transform="translate(191.500000, 21.500000) scale(-1, 1) rotate(-180.000000) translate(-191.500000, -21.500000) translate(187.000000, 17.000000)" fill="#FFFFFF">
                    <path d="M4.72678394,6.46879738 C4.09791709,6.46879738 3.57966809,6.18397818 3.16855292,5.61259777 C2.76092178,5.03860435 2.55797721,4.31131374 2.55797721,3.42811292 C2.55797721,2.94644621 2.66772406,2.57975238 2.88808876,2.32716043 C3.10584044,2.07718151 3.42811292,1.95175654 3.84968018,1.95175654 C4.48028904,1.95175654 5.00115106,2.23744674 5.40965321,2.81056916 C5.81641334,3.3854336 6.02109992,4.11620823 6.02109992,5.00550609 C6.02109992,5.48107576 5.91222408,5.84602757 5.69185938,6.0960065 C5.47062368,6.34424342 5.15009321,6.46879738 4.72678394,6.46879738 M4.92624448,8.21081081 C6.05942422,8.21081081 6.9513351,7.92337859 7.5993641,7.34851416 C8.2482641,6.7701657 8.5722786,5.98625965 8.5722786,4.99244099 C8.5722786,4.41583454 8.47037081,3.85751924 8.26829725,3.31488205 C8.06186866,2.77224487 7.76572638,2.27838406 7.37377336,1.82720258 C6.91126879,1.29327546 6.36427657,0.889128343 5.73540972,0.617374247 C5.10480086,0.344749144 4.40102743,0.208872096 3.62496044,0.208872096 C2.50571681,0.208872096 1.622516,0.496304313 0.974487001,1.07378177 C0.329071023,1.6486462 0.00418551739,2.43342325 0.00418551739,3.42811292 C0.00418551739,3.99862232 0.108706324,4.55693763 0.319489949,5.10480086 C0.525047535,5.65179307 0.825544852,6.15087992 1.21662687,6.60467442 C1.66955036,7.13076248 2.21131654,7.53142557 2.83931238,7.80405067 C3.46730823,8.07493376 4.16324259,8.21081081 4.92624448,8.21081081" id="path3303"></path>
                </g>
                <g id="g3305" transform="translate(200.500000, 22.000000) scale(-1, 1) rotate(-180.000000) translate(-200.500000, -22.000000) translate(196.000000, 18.000000)" fill="#FFFFFF">
                    <path d="M0.371750352,3.40660405 L1.26453224,7.95867871 L3.70596407,7.95867871 L2.93599413,4.08026 C2.88112071,3.826468 2.84279641,3.61185195 2.81405319,3.43385688 C2.78879399,3.25501017 2.77485789,3.11704271 2.77485789,3.01399293 C2.77485789,2.73550305 2.85324849,2.51748039 3.01177171,2.36077661 C3.17029494,2.20747943 3.39762769,2.12997918 3.69289897,2.12997918 C4.19634085,2.12997918 4.63010219,2.32160066 4.99244099,2.70228866 C5.35477978,3.08297667 5.60562972,3.61355525 5.74063576,4.29146945 L6.47489442,7.95867871 L8.91893927,7.95867871 L7.44258289,0.505880702 L4.98460193,0.505880702 L5.20932166,1.59684565 C4.79210944,1.16676189 4.35399307,0.845689456 3.89758555,0.631073401 C3.43856501,0.418160647 2.95515628,0.313407573 2.44735936,0.313407573 C1.75316701,0.313407573 1.21575586,0.493105936 0.834254919,0.850799362 C0.452753977,1.21189939 0.262874513,1.71863174 0.262874513,2.37695798 C0.262874513,2.53110681 0.272455586,2.69547546 0.289004714,2.86836061 C0.308166862,3.04294907 0.334297063,3.22094413 0.371750352,3.40660405" id="path3307"></path>
                </g>
                <g id="g3309" transform="translate(208.000000, 20.500000) scale(-1, 1) rotate(-180.000000) translate(-208.000000, -20.500000) translate(205.000000, 15.000000)" fill="#FFFFFF">
                    <path d="M3.99211412,10.2930917 L3.61206486,8.0546417 L5.89635256,8.0546417 L5.57618501,6.25397303 L3.29189731,6.25397303 L2.71942814,2.91566484 C2.70266126,2.84089971 2.69228176,2.77964635 2.68509596,2.72650005 C2.679507,2.67335375 2.67711173,2.62471138 2.67711173,2.58057293 C2.67711173,2.36258302 2.73938871,2.20944962 2.86474109,2.11396644 C2.99248875,2.0220864 3.20726449,1.97344402 3.50347935,1.97344402 L4.6595956,1.97344402 L4.34262174,0.171874571 L2.46393284,0.171874571 C1.79006397,0.171874571 1.2766781,0.331313467 0.922976785,0.651992829 C0.569275474,0.969069053 0.39282403,1.42937005 0.39282403,2.03019346 C0.39282403,2.15990646 0.399211412,2.30223045 0.411986177,2.45176071 C0.423164097,2.60219176 0.443124668,2.75442438 0.467875775,2.91026014 L1.74774756,10.2930917 L3.99211412,10.2930917 Z" id="path3311"></path>
                </g>
                <g id="g3313" transform="translate(109.500000, 19.000000) scale(-1, 1) rotate(-180.000000) translate(-109.500000, -19.000000) translate(79.000000, 9.000000)" fill="#FFFFFF">
                    <path d="M29.8220632,19.0469494 L25.8006032,0.56971462 L20.942318,0.56971462 L24.9601632,19.0469494 L29.8220632,19.0469494 Z M50.2664431,7.11634638 L52.8248147,14.0540872 L54.2960364,7.11634638 L50.2664431,7.11634638 Z M55.6886364,0.56971462 L60.1854421,0.56971462 L56.2597741,19.0469494 L52.1136036,19.0469494 C51.179179,19.0469494 50.3947684,18.5153967 50.0459406,17.6896233 L42.7521869,0.56971462 L47.8544708,0.56971462 L48.8702283,3.33147767 L55.1012322,3.33147767 L55.6886364,0.56971462 Z M43.0061263,6.60257134 C43.0269113,11.477212 36.1488591,11.7474328 36.1958515,13.9287545 C36.209407,14.5891954 36.8528406,15.2940806 38.2571886,15.4754129 C38.9530368,15.5651902 40.8724932,15.6345232 43.0495038,14.6487507 L43.904403,18.5625076 C42.7323055,18.9829498 41.2267432,19.3865032 39.3578939,19.3865032 C34.5529269,19.3865032 31.1721894,16.8727388 31.1423673,13.2780913 C31.1134489,10.6141055 33.5588581,9.1341134 35.3996927,8.24789591 C37.2938456,7.34212296 37.9264348,6.76345938 37.9192052,5.95101926 C37.9065535,4.71280364 36.4109318,4.16525101 35.0120059,4.14480667 C32.5702115,4.10747354 31.1495969,4.7936921 30.0190696,5.31191156 L29.1424817,1.26126649 C30.2757201,0.750158102 32.3704941,0.304827143 34.5447936,0.279938387 C39.6506923,0.279938387 42.988956,2.7581474 43.0061263,6.60257134 Z M22.8771373,19.0469494 L15.0004978,0.56971462 L9.86477704,0.56971462 L5.99152361,15.3171915 C5.7565619,16.2256312 5.55232595,16.5598516 4.83659644,16.9394051 C3.66721008,17.5625129 1.73781296,18.1482876 0.0442812454,18.5127301 L0.157243606,19.0469494 L8.42608841,19.0469494 C9.47889761,19.0469494 10.4286851,18.3571753 10.6699727,17.1634039 L12.7141396,6.47279426 L17.7721423,19.0469494 L22.8771373,19.0469494 Z" id="path3315"></path>
                </g>
            </g>
        </g>
    </g>
</svg>